<svg xmlns="http://www.w3.org/2000/svg" xmlns:xlink="http://www.w3.org/1999/xlink" width="120px" height="23px" viewBox="0 0 120 23"><title>entermedia-logo</title><g id="Entermedia" stroke="none" stroke-width="1" fill="none" fill-rule="evenodd"><g id="Work-Desktop" transform="translate(-31.000000, -13.000000)" fill="#020F59" fill-rule="nonzero"><g id="Header"><path d="M39.8254785,36 L39.8254785,33.4096466 L34.7936425,33.4096466 L34.7936425,25.7874572 L39.2895433,25.7874572 L39.2895433,23.1971038 L34.7936425,23.1971038 L34.7936425,16.1406238 L39.8254785,16.1406238 L39.8254785,13.5502703 L31.8162248,13.5502703 L31.8162248,36 L39.8254785,36 Z M45.5388123,36 L45.5388123,27.7525529 L45.0921997,20.219686 L44.9135546,18.7607514 L44.9731029,18.701203 L50.2133581,36 L52.9823566,36 L52.9823566,13.5502703 L50.0049389,13.5502703 L50.0049389,21.559524 L50.7195192,30.5513256 L50.6599708,30.6108739 L45.4197156,13.5502703 L42.5613946,13.5502703 L42.5613946,36 L45.5388123,36 Z M61.5837856,36 L61.5837856,16.1406238 L64.9482677,16.1406238 L64.9482677,13.5502703 L55.093015,13.5502703 L55.093015,16.1406238 L58.6063679,16.1406238 L58.6063679,36 L61.5837856,36 Z M75.0681797,36 L75.0681797,33.4096466 L70.0363438,33.4096466 L70.0363438,25.7874572 L74.5322445,25.7874572 L74.5322445,23.1971038 L70.0363438,23.1971038 L70.0363438,16.1406238 L75.0681797,16.1406238 L75.0681797,13.5502703 L67.058926,13.5502703 L67.058926,36 L75.0681797,36 Z M80.7815135,36 L80.7815135,25.0133286 L80.8410619,25.0133286 L84.89035,36 L87.9868644,36 L83.8482538,25.0728769 C86.3195105,24.6262643 86.9447682,21.4106531 86.9447682,19.2966865 C86.9447682,13.8703427 83.7886295,13.565803 81.6143346,13.5509715 L77.8040958,13.5502703 L77.8040958,36 L80.7815135,36 Z M80.7815135,23.4948455 L80.7815135,16.0810754 L81.2579004,16.0810754 C83.5207378,16.021527 83.7887054,17.8079777 83.7887054,19.9517184 C83.7887054,22.2145559 83.0145768,23.6437164 80.7815135,23.4948455 Z M92.3305861,36 L93.1940372,20.5174278 L93.2535856,20.5174278 L96.1416808,36 L98.196099,36 L100.518485,23.733039 L101.024646,20.5174278 L101.084194,20.5174278 L101.143743,23.4650714 L101.322388,27.6334562 L101.858323,36 L104.776192,36 L102.692,13.5502703 L100.071872,13.5502703 L98.1365507,23.4352972 L97.2433253,28.8244233 L97.1540028,29.7474228 L97.0944544,29.7474228 L93.9086175,13.5502703 L91.3480382,13.5502703 L89.5020392,36 L92.3305861,36 Z M115.729781,36 L115.729781,33.4096466 L110.697945,33.4096466 L110.697945,25.7874572 L115.193846,25.7874572 L115.193846,23.1971038 L110.697945,23.1971038 L110.697945,16.1406238 L115.729781,16.1406238 L115.729781,13.5502703 L107.720528,13.5502703 L107.720528,36 L115.729781,36 Z M129.303498,25.1621995 C129.303498,14.0529692 125.49717,13.5673716 122.04624,13.5507939 L118.465697,13.5502703 L118.465697,36 L120.906714,35.9990133 C126.016117,35.9708812 129.303498,35.2708958 129.303498,25.1621995 Z M121.443115,33.4691949 L121.443115,16.0810754 C126.391087,15.788296 126.156864,21.5126214 126.147682,24.9874901 L126.14796,25.5591938 C126.155719,29.2879233 126.186449,33.6129323 121.443115,33.4691949 Z M135.731412,36 L135.731412,13.5502703 L132.753994,13.5502703 L132.753994,36 L135.731412,36 Z M140.998133,36 L141.83181,31.6231959 L146.297937,31.6231959 L147.131614,36 L150.138805,36 L145.315389,13.5502703 L142.963229,13.5502703 L138.080264,36 L140.998133,36 Z M145.851324,29.3008101 L142.278423,29.3008101 L144.064873,17.8973002 L144.124422,17.8973002 L145.25584,26.0554248 L145.851324,29.3008101 Z" id="entermedia-logo"></path></g></g></g></svg>